<?xml version="1.0" ?><svg height="512" id="Layer_1" version="1.1" viewBox="0 0 512 512" width="512" xml:space="preserve" xmlns="http://www.w3.org/2000/svg" xmlns:cc="http://creativecommons.org/ns#" xmlns:dc="http://purl.org/dc/elements/1.1/" xmlns:inkscape="http://www.inkscape.org/namespaces/inkscape" xmlns:rdf="http://www.w3.org/1999/02/22-rdf-syntax-ns#" xmlns:sodipodi="http://sodipodi.sourceforge.net/DTD/sodipodi-0.dtd" xmlns:svg="http://www.w3.org/2000/svg"><defs id="defs12"/><g id="g3812"><g id="g11737" style="fill:#2a71db;fill-opacity:1"><rect height="512" id="rect2987" style="fill:#2a71db;fill-opacity:1;fill-rule:nonzero;stroke:none" width="512" x="0" y="0"/><path d="m 130.10475,250.1215 120.1122,-120.83213 c 30.1558,-30.320263 79.0273,-30.320263 109.1654,0 7.2178,7.60007 6.88,19.89794 -0.5467,27.36911 -7.5423,7.59118 -19.7424,7.59118 -27.3025,0 l -1.8222,-2.11557 c -15.1557,-12.92456 -37.8981,-12.19122 -52.2049,2.2089 l -122.8099,123.52551 c -8.089,7.49784 -20.3024,7.49784 -27.8358,-0.08 -7.5423,-7.57784 -7.5423,-19.87573 0,-27.45357 1.0133,-1.0089 2.0933,-1.88002 3.2444,-2.62225 z m 269.6646,2.62669 c -7.5423,-7.57784 -19.7468,-7.57784 -27.2891,0 -1.0045,1.02223 -1.8845,2.11558 -2.6312,3.27559 l -119.6277,120.33881 c -15.0756,15.15568 -39.5159,15.15568 -54.5871,0 l -0.5467,-0.0845 c -7.5289,-7.57784 -19.7424,-7.57784 -27.2891,0 -7.5289,7.56451 -7.5289,19.87573 0,27.44023 0.9645,0.96446 1.9911,1.81335 3.0756,2.54669 30.3114,27.8358 77.3207,27.03135 106.632,-2.45335 l 122.2633,-123.60995 c 7.5289,-7.57785 7.5289,-19.87573 0,-27.45357 z m -187.7972,79.72513 c -1.1422,0.75557 -2.2356,1.62224 -3.2356,2.63114 -7.5423,7.56895 -7.5423,19.87572 0,27.44023 7.5334,7.57785 19.7424,7.57785 27.8358,0.0933 l 122.81,-123.54773 c 15.0757,-15.15569 39.5159,-15.15569 54.5738,0 15.0934,15.16458 15.0934,39.7559 0,54.91159 L 297.50625,411.6962 c 15.089,15.15568 39.5159,15.15568 54.5871,0 l 89.1652,-90.24078 c 30.1336,-30.32026 30.1336,-79.48068 0,-109.81427 -30.1336,-30.30249 -79.014,-30.30249 -109.1653,0 l -120.1211,120.83214 z m -16.3423,-11.01787 122.2632,-123.60995 c 7.5379,-7.58673 7.5379,-19.88461 0,-27.44912 -7.5289,-7.58674 -19.7557,-7.58674 -27.2891,0 -1.0133,1.00001 -1.8845,2.10668 -2.6178,3.26669 l -119.641,120.34326 c -15.0757,15.16457 -39.507,15.16457 -54.5738,0 -15.088996,-15.15569 -15.088996,-39.74701 0,-54.91159 l 116.4499,-117.68099 c -15.0668,-15.16902 -39.5159,-15.16902 -54.5872,0 l -89.165196,90.22743 c -30.1469,30.33359 -30.1469,79.49401 0,109.81427 30.146896,30.32915 79.036296,30.32915 109.160996,0 z" id="Squarespace" style="fill:#2a71db;fill-opacity:1"/></g><path d="m 359.4088,280.79994 c 53.3377,0 96.591,-42.87551 96.591,-95.751 0,-52.83994 -43.2533,-95.715445 -96.591,-95.715445 -48.5111,0 -88.6355,35.448845 -95.4844,81.635455 h -3.0933 c -6.8889,-46.18661 -47.0133,-81.635455 -95.5199,-81.635455 -53.3421,0 -96.5554,42.875505 -96.5554,95.715445 0,52.38216 42.431,94.94211 95.0932,95.71545 v 0.0356 h 2.9067 v 32.63552 L 56.0002,283.68443 v 127.3243 l 110.7599,-33.02661 v 44.68439 h 162.782 L 281.8177,280.8 h 77.3777 c 0.071,0 0.1423,0 0.2134,0 z M 165.3112,212.08891 c -15.0666,0 -27.2844,-12.07999 -27.2844,-27.03997 0,-14.92443 12.2178,-27.03553 27.2844,-27.03553 15.0533,0 27.2666,12.1111 27.2666,27.03553 0,14.95998 -12.2177,27.03997 -27.2666,27.03997 z m 168.8132,-27.03997 c 0,-14.92443 12.1822,-27.03553 27.2355,-27.03553 15.0933,0 27.3111,12.1111 27.3111,27.03553 0,14.95998 -12.2134,27.07108 -27.3111,27.07108 -15.0533,0 -27.2355,-12.1111 -27.2355,-27.07108 z" id="Viddler" style="fill:#ffffff;fill-opacity:1"/></g></svg>